<svg xmlns="http://www.w3.org/2000/svg" width="183.776" height="847.473" viewBox="0 0 48.624 224.227"><path d="M75.912 246.41c-1.973-91.347 11.13-108.836 1.595-205.96a33 33 0 0 1 5.612-2.828 38 38 0 0 1 5.862-1.754 42 42 0 0 1 5.863-.826A45 45 0 0 1 100.46 35c1.802.1 3.521.305 5.116.593s3.064.658 4.368 1.085 2.442.912 3.372 1.43c.93.519 1.652 1.07 2.125 1.63-3.196 97.857 10.633 116.208 2.205 207.892-6.14 8.632-33.346 12.004-41.733-1.219z" style="display:inline;fill:#cc2f23;fill-opacity:1;stroke:#000;stroke-width:3.92266;stroke-dasharray:none;stroke-opacity:1" transform="translate(-73.745 -32.97)"/><path d="M109.943 36.677c-1.304-.427-2.774-.797-5.046-1.15-.712 1.306-2.351 17.717-2.603 24.705-.481 13.345 0 31.457 1.216 44.75 1.33 14.533 4.746 33.17 4.185 47.334-1.119 28.206-6.028 84.625-3.389 102.093 5.644-.91 8.421-1.947 12.752-6.61 9.015-91.854-4.814-110.205-1.618-208.061-.473-.56-1.195-1.112-3.811-2.346-.382-.288.756.197 1.686.715" style="display:inline;fill:#e85033;fill-opacity:1;stroke:#000;stroke-width:1.32292;stroke-dasharray:none;stroke-opacity:1" transform="translate(-73.745 -32.97)"/><path d="M91.74 254.249c-6.214-40.68 4.273-80.247.512-127.53-1.105-13.903-2.006-31.291-1.162-44.66.812-12.863-1.282-33.916.901-46.456 2.682-.824 9.372.277 12.132-.032.063 1.257-1.577 17.624-1.829 24.594-.48 13.309 0 31.373 1.217 44.629 1.33 14.495 4.746 33.082 4.184 47.209-1.118 28.13-6.028 84.398-3.532 102.102-1.58 1.337-9.76.174-12.423.144z" style="display:inline;fill:#e6a68f;fill-opacity:1;stroke:#000;stroke-width:1.3212;stroke-linejoin:round;stroke-dasharray:none;stroke-opacity:1" transform="translate(-73.745 -32.97)"/><path fill="none" d="M75.912 246.41c-1.973-91.347 11.13-108.836 1.595-205.96a33 33 0 0 1 5.612-2.828 38 38 0 0 1 5.862-1.754 42 42 0 0 1 5.863-.826A45 45 0 0 1 100.46 35c1.802.1 3.521.305 5.116.593s3.064.658 4.368 1.085 2.442.912 3.372 1.43c.93.519 1.652 1.07 2.125 1.63-3.196 97.857 10.633 116.208 2.205 207.892-6.14 8.632-33.346 12.004-41.733-1.219z" style="display:inline;fill:#000;fill-opacity:0;stroke:#000;stroke-width:3.92266;stroke-dasharray:none;stroke-opacity:1" transform="translate(-73.745 -32.97)"/></svg>